<svg width="21" height="20" viewBox="0 0 21 20" fill="none" xmlns="http://www.w3.org/2000/svg">
<path d="M19.0141 4.0548V13.8277C19.0141 14.625 18.3648 15.3565 17.5675 15.4552L17.3127 15.488C15.9647 15.6689 14.066 16.2278 12.5372 16.8689C12.0029 17.0908 11.4111 16.6881 11.4111 16.1045V4.67126C11.4111 4.36714 11.5837 4.08768 11.855 3.93973C13.3591 3.126 15.6359 2.40269 17.1812 2.27118H17.2305C18.2168 2.27118 19.0141 3.06846 19.0141 4.0548Z" fill="#0C1E33"/>
<path d="M9.73474 3.93973C8.23058 3.126 5.95379 2.40269 4.40854 2.27118H4.351C3.36467 2.27118 2.56738 3.06846 2.56738 4.0548V13.8277C2.56738 14.625 3.21672 15.3565 4.014 15.4552L4.26881 15.488C5.6168 15.6689 7.51549 16.2278 9.0443 16.8689C9.57857 17.0908 10.1704 16.6881 10.1704 16.1045V4.67126C10.1704 4.35892 10.006 4.08768 9.73474 3.93973ZM5.04143 6.43022H6.89081C7.22781 6.43022 7.50727 6.70968 7.50727 7.04667C7.50727 7.39189 7.22781 7.66313 6.89081 7.66313H5.04143C4.70444 7.66313 4.42498 7.39189 4.42498 7.04667C4.42498 6.70968 4.70444 6.43022 5.04143 6.43022ZM7.50727 10.129H5.04143C4.70444 10.129 4.42498 9.85772 4.42498 9.51251C4.42498 9.17551 4.70444 8.89605 5.04143 8.89605H7.50727C7.84426 8.89605 8.12373 9.17551 8.12373 9.51251C8.12373 9.85772 7.84426 10.129 7.50727 10.129Z" fill="#0C1E33"/>
</svg>
