<svg width="45" height="41" viewBox="0 0 45 41" fill="none" xmlns="http://www.w3.org/2000/svg">
<ellipse cx="22.5" cy="20.5" rx="22.5" ry="20.5" fill="url(#paint0_linear_94_195)"/>
<path d="M31.1568 15.9928H28.9184C28.3618 15.1139 27.5951 14.359 26.6676 13.7843L27.8177 12.7364C28.3 12.297 28.3 11.5871 27.8177 11.1477C27.3354 10.7083 26.5563 10.7083 26.0739 11.1477L24.256 12.8041C23.6871 12.6801 23.1059 12.6125 22.4999 12.6125C21.8939 12.6125 21.3126 12.6801 20.7561 12.8041L18.9258 11.1477C18.4435 10.7083 17.6644 10.7083 17.1821 11.1477C16.6997 11.5871 16.6997 12.297 17.1821 12.7364L18.3198 13.7843C17.4047 14.359 16.6379 15.1139 16.0814 15.9928H13.843C13.1628 15.9928 12.6063 16.4999 12.6063 17.1196C12.6063 17.7393 13.1628 18.2464 13.843 18.2464H15.191C15.1291 18.6182 15.0797 18.99 15.0797 19.3731V20.4999H13.843C13.1628 20.4999 12.6063 21.007 12.6063 21.6267C12.6063 22.2464 13.1628 22.7535 13.843 22.7535H15.0797V23.8802C15.0797 24.2633 15.1291 24.6352 15.191 25.007H13.843C13.1628 25.007 12.6063 25.5141 12.6063 26.1338C12.6063 26.7535 13.1628 27.2606 13.843 27.2606H16.0814C17.3676 29.2775 19.7544 30.6409 22.4999 30.6409C25.2454 30.6409 27.6322 29.2775 28.9184 27.2606H31.1568C31.837 27.2606 32.3935 26.7535 32.3935 26.1338C32.3935 25.5141 31.837 25.007 31.1568 25.007H29.8088C29.8706 24.6352 29.9201 24.2633 29.9201 23.8802V22.7535H31.1568C31.837 22.7535 32.3935 22.2464 32.3935 21.6267C32.3935 21.007 31.837 20.4999 31.1568 20.4999H29.9201V19.3731C29.9201 18.99 29.8706 18.6182 29.8088 18.2464H31.1568C31.837 18.2464 32.3935 17.7393 32.3935 17.1196C32.3935 16.4999 31.837 15.9928 31.1568 15.9928ZM23.7366 25.007H21.2632C20.583 25.007 20.0265 24.5 20.0265 23.8802C20.0265 23.2605 20.583 22.7535 21.2632 22.7535H23.7366C24.4168 22.7535 24.9733 23.2605 24.9733 23.8802C24.9733 24.5 24.4168 25.007 23.7366 25.007ZM23.7366 20.4999H21.2632C20.583 20.4999 20.0265 19.9929 20.0265 19.3731C20.0265 18.7534 20.583 18.2464 21.2632 18.2464H23.7366C24.4168 18.2464 24.9733 18.7534 24.9733 19.3731C24.9733 19.9929 24.4168 20.4999 23.7366 20.4999Z" fill="white"/>
<defs>
<linearGradient id="paint0_linear_94_195" x1="0" y1="0" x2="31.4519" y2="43.8502" gradientUnits="userSpaceOnUse">
<stop stop-color="#A286F4"/>
<stop offset="1" stop-color="#679FF1"/>
</linearGradient>
</defs>
</svg>
