<svg width="21" height="20" viewBox="0 0 21 20" fill="none" xmlns="http://www.w3.org/2000/svg">
<path d="M18.1398 9.11413V3.52491C18.1398 2.29199 17.6138 1.79883 16.3069 1.79883H12.9863C11.6794 1.79883 11.1533 2.29199 11.1533 3.52491V9.11413C11.1533 10.347 11.6794 10.8402 12.9863 10.8402H16.3069C17.6138 10.8402 18.1398 10.347 18.1398 9.11413Z" fill="white"/>
<path d="M9.50899 10.9224V16.5117C9.50899 17.7446 8.98294 18.2377 7.67605 18.2377H4.3554C3.04851 18.2377 2.52246 17.7446 2.52246 16.5117V10.9224C2.52246 9.68952 3.04851 9.19635 4.3554 9.19635H7.67605C8.98294 9.19635 9.50899 9.68952 9.50899 10.9224Z" fill="white"/>
<path d="M18.1398 16.5117V14.2102C18.1398 12.9773 17.6138 12.4841 16.3069 12.4841H12.9863C11.6794 12.4841 11.1533 12.9773 11.1533 14.2102V16.5117C11.1533 17.7446 11.6794 18.2377 12.9863 18.2377H16.3069C17.6138 18.2377 18.1398 17.7446 18.1398 16.5117Z" fill="white"/>
<path d="M9.50899 5.82636V3.52491C9.50899 2.29199 8.98294 1.79883 7.67605 1.79883H4.3554C3.04851 1.79883 2.52246 2.29199 2.52246 3.52491V5.82636C2.52246 7.05927 3.04851 7.55244 4.3554 7.55244H7.67605C8.98294 7.55244 9.50899 7.05927 9.50899 5.82636Z" fill="white"/>
</svg>
